<svg width="169" height="48" viewBox="0 0 169 48" fill="none" xmlns="http://www.w3.org/2000/svg">
<path d="M25.1414 25.9486V19.083C25.2161 18.3759 25.4447 17.6932 25.8114 17.0821C26.178 16.4709 26.6741 15.9459 27.2654 15.5431L29.7153 14.1489L35.0476 11.1156L40.2427 8.16061C41.5637 7.4091 42.9877 6.80041 44.0514 5.68505C44.9308 4.76545 45.6074 3.67457 46.0382 2.48178C46.1102 2.30495 46.5906 0.502686 46.5838 0.502686H47.3249V9.68404C47.3249 9.68404 47.3249 13.1117 44.5421 14.7848L25.1414 25.9486Z" fill="#CD992B"/>
<path d="M28.0652 29.6549L47.3253 18.6101V24.5542C47.3253 24.5542 47.3665 27.7847 44.6729 29.2571L29.9182 37.7073C28.4757 38.6673 27.3654 40.043 26.7373 41.6485C26.5386 42.203 26.4387 42.7875 26.4422 43.376V47.4566H25.1417V35.1875C25.1417 35.1161 25.1417 35.0481 25.1417 34.9801C25.1221 33.9538 25.3632 32.9391 25.8429 32.0294C26.3226 31.1196 27.0255 30.344 27.8868 29.774C27.9451 29.7331 28.0069 29.6957 28.0687 29.6617" fill="#CD992B"/>
<path d="M22.1836 25.9484V19.0828C22.1088 18.3756 21.8803 17.693 21.5136 17.0818C21.1469 16.4707 20.6508 15.9456 20.0596 15.5429L17.6096 14.1487L12.2739 11.1154L7.07541 8.16037C5.75435 7.40886 4.33034 6.80017 3.26663 5.6848C2.3869 4.76421 1.71028 3.67214 1.27989 2.47813C1.21469 2.30471 0.734306 0.502441 0.741168 0.502441H0V9.68379C0 9.68379 0 13.1115 2.78624 14.7845L22.1836 25.9484Z" fill="#CD992B"/>
<path d="M19.2601 29.6549L3.62384e-05 18.6067V24.5542C3.62384e-05 24.5542 -0.0411398 27.7846 2.65246 29.2571L17.4072 37.7073C18.8496 38.6673 19.9599 40.043 20.588 41.6485C20.7867 42.203 20.8866 42.7875 20.8831 43.3759V47.4565H22.1836V35.1875C22.1836 35.1161 22.1836 35.0481 22.1836 34.9801C22.2032 33.9538 21.9621 32.9391 21.4824 32.0294C21.0027 31.1196 20.2999 30.344 19.4385 29.7739C19.3802 29.7331 19.3184 29.6957 19.2567 29.6617" fill="#CD992B"/>
<path d="M98.9598 33.4743H102.288V25.2995H109.638V23.0585H102.288V18.325H110.846V15.8699H98.9598V33.4743Z" fill="white"/>
<path d="M134.059 15.8699V18.325H143.546L133.009 33.362L132.93 33.4743H149.002V31.0225H138.605L149.129 15.8699H134.059Z" fill="white"/>
<path d="M120.57 15.8699L113.1 33.3757L113.055 33.4743H115.419L121.05 20.4027L127.196 33.4743H130.788L122.515 15.8699H120.57Z" fill="white"/>
<path d="M86.5243 15.8699L79.0577 33.3757L79.0131 33.4743H81.3773L87.0046 20.4027L93.1536 33.4743H96.7462L88.4732 15.8699H86.5243Z" fill="white"/>
<path d="M74.9743 15.8699H72.6136L66.9828 28.9414L60.8338 15.8699H57.2412V33.4743H59.8868V21.4977L65.5142 33.4743H67.4632L73.0185 20.4571V33.4743H76.3469V15.8699H74.9743Z" fill="white"/>
<path d="M160.727 15.8699H158.778L151.311 33.3757L151.267 33.4743H153.631L159.258 20.4027L165.407 33.4743H169L160.727 15.8699Z" fill="white"/>
<path d="M67.7067 40.2109H66.3616V47.2942H67.7067V40.2109Z" fill="white"/>
<path d="M75.067 45.1679L70.6063 40.2372L70.5789 40.21H69.7965V47.2932H70.4965V41.934L75.3347 47.4292L75.3621 47.4564H75.7567V40.21H75.067V45.1679Z" fill="white"/>
<path d="M80.9453 45.5828L78.3992 40.2576L78.3752 40.21H76.9443L80.4031 47.4088L80.4271 47.4564H80.8389L84.0884 40.21H83.3403L80.9453 45.5828Z" fill="white"/>
<path d="M85.2687 47.2932H90.2887V46.6743H86.6138V43.7465H89.0706V43.1242H86.6138V40.8289H90.2887V40.21H85.2687V47.2932Z" fill="white"/>
<path d="M95.7818 44.1211C95.5837 43.9441 95.3675 43.788 95.1367 43.6553C94.9068 43.5193 94.6632 43.3832 94.4127 43.2506L93.675 42.8698C93.4593 42.7591 93.2528 42.6318 93.0573 42.4889C92.8949 42.3731 92.7504 42.2345 92.6284 42.0774C92.5283 41.9501 92.4739 41.7934 92.474 41.632C92.4747 41.5146 92.5004 41.3987 92.5495 41.2919C92.6016 41.1758 92.6789 41.0724 92.776 40.9893C92.8874 40.892 93.0167 40.8169 93.1568 40.7682C93.3331 40.7067 93.519 40.6767 93.7058 40.6798C93.9215 40.6774 94.1361 40.7107 94.3406 40.7784C94.5208 40.8398 94.6883 40.9332 94.8348 41.0539C94.9818 41.1763 95.1071 41.3223 95.2053 41.4858C95.3143 41.6619 95.4019 41.8503 95.4661 42.0468L95.497 42.1387L96.2588 41.7986L96.2347 41.7238C96.0895 41.2311 95.7874 40.7981 95.3735 40.4894C94.8936 40.1817 94.3281 40.0318 93.7573 40.0609C93.4175 40.0556 93.0792 40.105 92.7554 40.2072C92.4829 40.2943 92.2301 40.4329 92.0108 40.6152C91.8111 40.7842 91.6527 40.9958 91.5475 41.2341C91.442 41.4779 91.3882 41.7407 91.3897 42.006C91.3848 42.2637 91.445 42.5185 91.5647 42.7473C91.6812 42.9624 91.8331 43.1566 92.0142 43.322C92.2064 43.4968 92.4169 43.6507 92.6421 43.7811C92.8789 43.9171 93.1157 44.0463 93.3524 44.1687L94.0387 44.5326C94.2493 44.6407 94.4492 44.7682 94.6357 44.9135C94.7964 45.0347 94.9365 45.1805 95.0509 45.3453C95.1529 45.4972 95.2056 45.6764 95.2019 45.8588C95.2048 46.0051 95.168 46.1496 95.0955 46.2771C95.021 46.4001 94.9218 46.5066 94.8039 46.5899C94.6743 46.6782 94.5304 46.7438 94.3784 46.7837C94.0157 46.8834 93.6315 46.8751 93.2735 46.7599C93.0841 46.7011 92.9065 46.6103 92.7485 46.4913C92.5866 46.3715 92.4462 46.2255 92.3333 46.0594C92.2111 45.88 92.1152 45.6842 92.0485 45.4779L92.0176 45.3895L91.2216 45.7296L91.2524 45.8078C91.3425 46.0576 91.466 46.2944 91.6196 46.5117C91.7663 46.7195 91.9486 46.9002 92.1583 47.0456C92.3787 47.1983 92.6235 47.3132 92.8823 47.3856C93.5528 47.5496 94.2552 47.5332 94.9171 47.338C95.2152 47.2435 95.4924 47.0934 95.7338 46.8959C95.947 46.7162 96.116 46.4906 96.2279 46.2363C96.3535 45.9713 96.4191 45.6823 96.42 45.3895C96.4223 45.1443 96.3596 44.9027 96.2382 44.689C96.1142 44.4782 95.9579 44.2878 95.7749 44.1245" fill="white"/>
<path d="M97.4083 40.8298H99.9372V47.2942H101.282V40.8298H103.804V40.2109H97.4083V40.8298Z" fill="white"/>
<path d="M109.247 45.4603L106.584 40.2576L106.56 40.21H105.222V47.2932H105.911V41.7946L108.718 47.2456L108.742 47.2932H109.092L111.848 41.8388V47.2932H113.2V40.21H111.882L109.247 45.4603Z" fill="white"/>
<path d="M115.289 47.2942H120.309V46.6753H116.634V43.7475H119.091V43.1252H116.634V40.8298H120.309V40.2109H115.289V47.2942Z" fill="white"/>
<path d="M127.217 45.1679L122.756 40.2372L122.729 40.21H121.946V47.2932H122.646V41.934L127.484 47.4292L127.512 47.4564H127.91V40.21H127.217V45.1679Z" fill="white"/>
<path d="M129.32 40.8289H131.849V47.2932H133.194V40.8289H135.72V40.21H129.32V40.8289Z" fill="white"/>
<path d="M141.995 40.21H140.647V47.2932H145.502V46.6743H141.995V40.21Z" fill="white"/>
<path d="M148.165 40.21H146.817V47.2932H151.672V46.6743H148.165V40.21Z" fill="white"/>
<path d="M159.237 45.1515L159.193 45.2365C159.089 45.4368 158.965 45.626 158.822 45.801C158.673 45.9854 158.502 46.152 158.314 46.2975C158.125 46.4365 157.919 46.5508 157.7 46.6375C157.483 46.7286 157.25 46.7749 157.014 46.7736C156.634 46.7774 156.256 46.7081 155.902 46.5695C155.568 46.4378 155.267 46.2373 155.017 45.9813C154.759 45.7089 154.559 45.3872 154.43 45.0359C154.141 44.21 154.141 43.3115 154.43 42.4855C154.563 42.1299 154.766 41.804 155.027 41.5266C155.277 41.2659 155.578 41.0597 155.912 40.9213C156.261 40.7792 156.634 40.7075 157.011 40.7105C157.438 40.7021 157.857 40.8335 158.201 41.0845C158.606 41.4084 158.932 41.8188 159.155 42.2849L159.2 42.3733L159.855 41.9347L159.814 41.8632C159.66 41.621 159.485 41.3933 159.289 41.1831C159.079 40.9604 158.842 40.765 158.582 40.6017C158.309 40.4299 158.015 40.2939 157.707 40.197C156.651 39.9089 155.523 40.0407 154.564 40.5643C154.273 40.7258 154.006 40.9248 153.768 41.1559C153.535 41.381 153.335 41.6361 153.171 41.9143C153.008 42.1916 152.882 42.4888 152.797 42.7984C152.668 43.2678 152.633 43.7578 152.696 44.2404C152.758 44.723 152.916 45.1886 153.161 45.6106C153.321 45.8856 153.517 46.1383 153.744 46.3621C153.977 46.5898 154.24 46.7854 154.526 46.9436C154.83 47.1074 155.152 47.233 155.487 47.3176C155.849 47.4079 156.222 47.4524 156.595 47.4503C156.972 47.4548 157.346 47.4032 157.707 47.2972C158.023 47.2032 158.324 47.0671 158.603 46.8926C158.857 46.7301 159.087 46.5345 159.289 46.3111C159.481 46.0998 159.655 45.8723 159.807 45.631L159.852 45.5562L159.237 45.1515Z" fill="white"/>
</svg>
